<svg xmlns="http://www.w3.org/2000/svg" viewBox="0 0 1440 720" role="img" aria-labelledby="title desc">
  <title id="title">Lanzhou University freshman guide hero artwork</title>
  <desc id="desc">A warm campus walkway scene with buildings, trees, students and distant hills.</desc>
  <defs>
    <linearGradient id="sky" x1="0" y1="0" x2="1" y2="1">
      <stop offset="0" stop-color="#dceeff"/>
      <stop offset="0.55" stop-color="#fff4d9"/>
      <stop offset="1" stop-color="#f4caa0"/>
    </linearGradient>
    <linearGradient id="ground" x1="0" y1="0" x2="0" y2="1">
      <stop offset="0" stop-color="#d9ecdc"/>
      <stop offset="1" stop-color="#7aa78d"/>
    </linearGradient>
    <linearGradient id="path" x1="0" y1="0" x2="1" y2="1">
      <stop offset="0" stop-color="#ead8bd"/>
      <stop offset="1" stop-color="#b98c68"/>
    </linearGradient>
  </defs>
  <rect width="1440" height="720" fill="url(#sky)"/>
  <circle cx="1180" cy="130" r="86" fill="#ffd681" opacity=".85"/>
  <path d="M0 320 C190 260 325 340 520 290 C770 225 900 330 1115 270 C1245 235 1340 245 1440 205 L1440 720 L0 720 Z" fill="#b9986e" opacity=".26"/>
  <path d="M0 390 C230 315 390 410 610 345 C820 285 975 380 1190 315 C1300 280 1375 275 1440 255 L1440 720 L0 720 Z" fill="#806c5d" opacity=".16"/>
  <rect y="430" width="1440" height="290" fill="url(#ground)"/>
  <path d="M505 430 L916 430 L1210 720 L190 720 Z" fill="url(#path)"/>
  <path d="M660 430 L730 720" stroke="#f6e8d6" stroke-width="6" opacity=".55"/>
  <path d="M760 430 L700 720" stroke="#f6e8d6" stroke-width="6" opacity=".45"/>
  <g opacity=".92">
    <rect x="146" y="250" width="230" height="180" rx="8" fill="#a24946"/>
    <rect x="178" y="285" width="35" height="45" fill="#ffdca8"/>
    <rect x="235" y="285" width="35" height="45" fill="#ffdca8"/>
    <rect x="292" y="285" width="35" height="45" fill="#ffdca8"/>
    <rect x="178" y="350" width="35" height="52" fill="#f2c788"/>
    <rect x="235" y="350" width="35" height="52" fill="#f2c788"/>
    <rect x="292" y="350" width="35" height="52" fill="#f2c788"/>
    <path d="M122 250 L260 175 L400 250 Z" fill="#7e3433"/>
  </g>
  <g opacity=".95">
    <rect x="910" y="228" width="280" height="202" rx="8" fill="#346b86"/>
    <path d="M890 228 L1050 142 L1210 228 Z" fill="#23546c"/>
    <rect x="950" y="275" width="42" height="50" fill="#eaf6ff"/>
    <rect x="1018" y="275" width="42" height="50" fill="#eaf6ff"/>
    <rect x="1086" y="275" width="42" height="50" fill="#eaf6ff"/>
    <rect x="950" y="350" width="42" height="52" fill="#d6eaf6"/>
    <rect x="1018" y="350" width="42" height="52" fill="#d6eaf6"/>
    <rect x="1086" y="350" width="42" height="52" fill="#d6eaf6"/>
  </g>
  <g fill="#2e6d53">
    <ellipse cx="84" cy="415" rx="58" ry="92"/>
    <ellipse cx="430" cy="420" rx="54" ry="86"/>
    <ellipse cx="1280" cy="410" rx="66" ry="100"/>
    <ellipse cx="1355" cy="440" rx="52" ry="78"/>
  </g>
  <g stroke="#5b4a3f" stroke-width="12" stroke-linecap="round">
    <path d="M84 472 L84 602"/>
    <path d="M430 475 L430 600"/>
    <path d="M1280 475 L1280 625"/>
    <path d="M1355 490 L1355 620"/>
  </g>
  <g transform="translate(600 500)">
    <circle cx="0" cy="0" r="18" fill="#2d4f73"/>
    <path d="M0 20 L-10 82 M0 20 L12 82 M-20 48 L20 48" stroke="#2d4f73" stroke-width="10" stroke-linecap="round"/>
    <rect x="-56" y="52" width="26" height="42" rx="5" fill="#b94844"/>
  </g>
  <g transform="translate(760 512)">
    <circle cx="0" cy="0" r="16" fill="#654032"/>
    <path d="M0 19 L-9 75 M0 19 L15 76 M-18 44 L18 44" stroke="#654032" stroke-width="9" stroke-linecap="round"/>
    <circle cx="38" cy="78" r="14" fill="#2f6b83"/>
    <rect x="20" y="45" width="32" height="42" rx="6" fill="#2f6b83"/>
  </g>
  <rect width="1440" height="720" fill="#092b4c" opacity=".18"/>
</svg>
